<?xml version="1.0" encoding="utf-8"?>
<!-- Generator: Adobe Illustrator 23.0.1, SVG Export Plug-In . SVG Version: 6.00 Build 0)  -->
<svg version="1.1" xmlns="http://www.w3.org/2000/svg" xmlns:xlink="http://www.w3.org/1999/xlink" x="0px" y="0px"
	 viewBox="0 0 200 200" style="enable-background:new 0 0 200 200;" xml:space="preserve">
<style type="text/css">
	.st0{fill:#58595B;}
	.st1{fill:#FFFFFF;}
	.st2{fill:url(#SVGID_1_);}
	.st3{fill:none;stroke:#355688;stroke-width:4;stroke-miterlimit:10;}
	.st4{fill:#355688;}
	.st5{opacity:0.22;fill:#050305;}
	.st6{fill:none;stroke:#FFFFFF;stroke-width:6;stroke-miterlimit:10;}
</style>
<g id="background">
</g>
<g id="icons">
	<g>

			<image style="overflow:visible;opacity:0.51;" width="844" height="844" xlink:href="C13A976827D31686.png"  transform="matrix(0.24 0 0 0.24 328.4301 863.4441)">
		</image>
		<g>
			<g>
				<g>
					<g>
						<g>
							<g>
								<path class="st0" d="M362.3,1049.9h132.6c11,0,19.9-8.9,19.9-19.9V897.5c0-11-8.9-19.9-19.9-19.9H362.3
									c-11,0-19.9,8.9-19.9,19.9V1030C342.5,1041,351.4,1049.9,362.3,1049.9z"/>
							</g>
							<path class="st1" d="M494.9,877.6c11,0,19.9,8.9,19.9,19.9V1030c0,11-8.9,19.9-19.9,19.9H362.3c-11,0-19.9-8.9-19.9-19.9
								V897.5c0-11,8.9-19.9,19.9-19.9H494.9z"/>

								<linearGradient id="SVGID_1_" gradientUnits="userSpaceOnUse" x1="334.4206" y1="1057.9572" x2="502.0285" y2="890.3493" gradientTransform="matrix(-1 0 0 -1 857.2603 1927.4954)">
								<stop  offset="0" style="stop-color:#FFFFFF"/>
								<stop  offset="0.6" style="stop-color:#EBEBEB"/>
								<stop  offset="1" style="stop-color:#D3D3D3"/>
							</linearGradient>
							<path class="st2" d="M345.8,897.5c0-9.1,7.5-16.6,16.6-16.6h132.6c9.1,0,16.6,7.5,16.6,16.6V1030c0,9.1-7.5,16.6-16.6,16.6
								H362.3c-9.1,0-16.6-7.5-16.6-16.6V897.5z"/>
						</g>
					</g>
				</g>
			</g>
		</g>
	</g>
	<g>
		<g>
			<g>
				<path class="st3" d="M484.7,1009.8c-1.3,2.8-4.3,7.3-10.8,7.3h-69.7"/>
				<path class="st3" d="M405,952.2c6.7-2,31.5-11.3,31.5-40.1c0,0,0.6-7.3,8.6-7.3c0,0,8.8-1.9,9.8,9.1c0,0,2.3,19.3-4,32h37.9
					c0,0,3.9-0.3,5.6,4.3"/>
				<polyline class="st3" points="373,950.2 391.9,950.2 391.9,1022.1 371.2,1022.1 				"/>
				<g>
					<path class="st3" d="M495.1,956.6c-0.7,3.7-3.4,8-10.1,7.9h-3.1"/>
				</g>
				<g>
					<path class="st3" d="M492.9,974.3c-0.7,3.7-3.4,8-10.1,7.9h-3.1"/>
				</g>
				<g>
					<path class="st3" d="M488.6,992.3c-0.7,3.7-3.4,8-10.1,7.9h-3.1"/>
				</g>
			</g>
		</g>
		<line class="st3" x1="367.7" y1="950.2" x2="363.7" y2="950.2"/>
		<line class="st3" x1="478.2" y1="964.5" x2="474.2" y2="964.5"/>
		<line class="st3" x1="476.2" y1="982.3" x2="472.2" y2="982.3"/>
		<line class="st3" x1="472.2" y1="1000.2" x2="468.2" y2="1000.2"/>
		<line class="st3" x1="367.7" y1="1022.1" x2="363.7" y2="1022.1"/>
	</g>
</g>
<g id="Layer_3">
	<path class="st4" d="M181.2,188.3H21.6c-4.2,0-7.7-3.4-7.7-7.7V20.9c0-4.2,3.4-7.7,7.7-7.7h159.7c4.2,0,7.7,3.4,7.7,7.7v159.7
		C188.9,184.8,185.5,188.3,181.2,188.3z"/>
	<g id="Layer_4">
	</g>
	<path class="st5" d="M188.9,180.6l0-111.9l-25.2-24.1l-3,4.3l-5.1-4.3l-23,0.7l0.2,13l-9.6-8.8l-68.5,2.9l-14.5,6l9.1,9.4
		l-13.3,8.4l8.7,8l-13,10.6l9.5,8.1l-11.5,9.6l6.3,5.6l-5.4,2.3l2.6,3.9l64.1,64.1l84.1-0.2C185.5,188.3,188.9,184.8,188.9,180.6z"
		/>
	<g>
		<g>
			<g>
				<path class="st6" d="M42.7,59.7c1.3-2.8,4.3-7.3,10.8-7.3h69.7"/>
				<path class="st6" d="M122.4,117.3c-6.7,2-31.5,11.3-31.5,40.1c0,0-0.6,7.3-8.6,7.3c0,0-8.8,1.9-9.8-9.1c0,0-2.3-19.3,4-32H38.5
					c0,0-3.9,0.3-5.6-4.3"/>
				<polyline class="st6" points="154.4,119.4 135.5,119.4 135.5,47.4 156.2,47.4 				"/>
				<g>
					<path class="st6" d="M32.3,112.9c0.7-3.7,3.4-8,10.1-7.9h3.1"/>
				</g>
				<g>
					<path class="st6" d="M34.4,95.2c0.7-3.7,3.4-8,10.1-7.9h3.1"/>
				</g>
				<g>
					<path class="st6" d="M38.8,77.3c0.7-3.7,3.4-8,10.1-7.9h3.1"/>
				</g>
			</g>
		</g>
		<line class="st6" x1="159.7" y1="119.4" x2="163.7" y2="119.4"/>
		<line class="st6" x1="49.2" y1="105" x2="53.2" y2="105"/>
		<line class="st6" x1="51.2" y1="87.3" x2="55.2" y2="87.3"/>
		<line class="st6" x1="55.2" y1="69.4" x2="59.2" y2="69.4"/>
		<line class="st6" x1="159.7" y1="47.4" x2="163.7" y2="47.4"/>
	</g>
	<path class="st4" d="M181.2,468.7H21.6c-4.2,0-7.7-3.4-7.7-7.7V301.3c0-4.2,3.4-7.7,7.7-7.7h159.7c4.2,0,7.7,3.4,7.7,7.7V461
		C188.9,465.2,185.5,468.7,181.2,468.7z"/>
	<path class="st5" d="M188.9,461v-87.8l-66.3-58.1l-0.4-0.3v0.5l-10.8,3.7l-7.9,22.5l-15.2,15.9l-11.7,10l-11.6-8l0,0l-18,3.8
		l-8.7-4.2l-4-0.1v78.6l31.3,31.3h115.6C185.5,468.7,188.9,465.2,188.9,461z"/>
	<g>
		<g>
			<g>
				<path class="st6" d="M155.3,421.7c-1.3,2.8-4.3,7.3-10.8,7.3H74.8"/>
				<path class="st6" d="M75.6,364.1c6.7-2,31.5-11.3,31.5-40.1c0,0,0.6-7.3,8.6-7.3c0,0,8.8-1.9,9.8,9.1c0,0,2.3,19.3-4,32h37.9
					c0,0,3.9-0.3,5.6,4.3"/>
				<polyline class="st6" points="43.6,362.1 62.5,362.1 62.5,434.1 41.8,434.1 				"/>
				<g>
					<path class="st6" d="M165.7,368.5c-0.7,3.7-3.4,8-10.1,7.9h-3.1"/>
				</g>
				<g>
					<path class="st6" d="M163.6,386.3c-0.7,3.7-3.4,8-10.1,7.9h-3.1"/>
				</g>
				<g>
					<path class="st6" d="M159.2,404.2c-0.7,3.7-3.4,8-10.1,7.9h-3.1"/>
				</g>
			</g>
		</g>
		<line class="st6" x1="38.3" y1="362.1" x2="34.3" y2="362.1"/>
		<line class="st6" x1="148.8" y1="376.5" x2="144.9" y2="376.5"/>
		<line class="st6" x1="146.8" y1="394.2" x2="142.9" y2="394.2"/>
		<line class="st6" x1="142.8" y1="412.1" x2="138.9" y2="412.1"/>
		<line class="st6" x1="38.3" y1="434.1" x2="34.3" y2="434.1"/>
	</g>
</g>
</svg>
