<?xml version="1.0" encoding="utf-8"?>
<!-- Generator: Adobe Illustrator 24.0.0, SVG Export Plug-In . SVG Version: 6.00 Build 0)  -->
<svg version="1.1" id="Layer_1" xmlns="http://www.w3.org/2000/svg" xmlns:xlink="http://www.w3.org/1999/xlink" x="0px" y="0px"
	 viewBox="0 0 75 60" style="enable-background:new 0 0 75 60;" xml:space="preserve">
<style type="text/css">
	.st0{display: none; fill:#355688;}
	.st1{fill:#355688;}
</style>
<g>
	<circle class="st0" cx="101.6" cy="184.7" r="95.7"/>
	<path class="st1" d="M66.3,10.7H54.4V9c0-3.6-3-6.6-6.6-6.6H27.3c-3.6,0-6.6,3-6.6,6.6v1.7H9.2c-3.6,0-6.6,3-6.6,6.6v34
		c0,3.6,3,6.6,6.6,6.6h26.3V47.8c-7.8-1.1-14.3-7.1-15.9-15l-0.3-1.3h4.9l0.2,0.8C26,38.8,31.6,43.2,38,43.2c6.4,0,12-4.5,13.6-10.8
		l0.2-0.8h4.9l-0.3,1.3c-1.6,7.9-8.1,13.9-15.9,15V58h25.7c3.6,0,6.6-3,6.6-6.6v-34C72.9,13.7,69.9,10.7,66.3,10.7z M44.1,33.5
		c0,3.3-2.7,6.1-6.1,6.1c-3.3,0-6.1-2.7-6.1-6.1V17.7c0-3.3,2.7-6.1,6.1-6.1c3.3,0,6.1,2.7,6.1,6.1V33.5z"/>
</g>
</svg>
