<?xml version="1.0" encoding="utf-8"?>
<!-- Generator: Adobe Illustrator 24.0.0, SVG Export Plug-In . SVG Version: 6.00 Build 0)  -->
<svg version="1.1" id="Layer_1" xmlns="http://www.w3.org/2000/svg" xmlns:xlink="http://www.w3.org/1999/xlink" x="0px" y="0px"
	 viewBox="0 0 200 200" style="enable-background:new 0 0 200 200;" xml:space="preserve">
<style type="text/css">
	.st0{display:none;}
	.st1{display:inline;}
	.st2{fill:#355688;}
</style>
<g class="st0">
	<g class="st1">
		<polygon class="st2" points="91,101.8 109,101.8 99.9,72.2 		"/>
	</g>
	<g class="st1">
		<g>
			<path class="st2" d="M100,3C46.4,3,3,46.4,3,100c0,53.6,43.4,97,97,97s97-43.4,97-97C197,46.4,153.6,3,100,3z M159,146.2
				c-0.7,0.7-1.5,1-2.5,1h-29.4c-3.2,0-5.3-1.3-6.2-4l-3.8-10.5H82.9l-3.8,10.5c-1,2.7-3,4-6.2,4H43.4c-1,0-1.8-0.3-2.5-1
				c-0.7-0.7-1-1.4-1-2.1c0-0.7,0.1-1.2,0.2-1.5L75.6,41.1c1-3.5,3.3-5.3,7.2-5.3h34.5c3.8,0,6.2,1.8,7.2,5.3l35.5,101.5
				c0.1,0.3,0.2,0.8,0.2,1.5C160.1,144.9,159.7,145.6,159,146.2z"/>
		</g>
	</g>
</g>
<g>
	<path class="st2" d="M100,3C46.4,3,3,46.4,3,100c0,53.6,43.4,97,97,97s97-43.4,97-97C197,46.4,153.6,3,100,3z M120.5,152
		c0,1.2-0.4,2.2-1.3,3c-0.8,0.9-1.9,1.3-3,1.3H83.8c-1.2,0-2.2-0.4-3-1.3c-0.8-0.8-1.3-1.9-1.3-3V49.2c0-1.2,0.4-2.2,1.3-3
		c0.8-0.8,1.9-1.3,3-1.3h32.5c1.2,0,2.2,0.4,3,1.3c0.8,0.8,1.3,1.9,1.3,3V152z"/>
</g>
</svg>
