<?xml version="1.0" encoding="utf-8"?>
<!-- Generator: Adobe Illustrator 23.0.1, SVG Export Plug-In . SVG Version: 6.00 Build 0)  -->
<svg version="1.1" xmlns="http://www.w3.org/2000/svg" xmlns:xlink="http://www.w3.org/1999/xlink" x="0px" y="0px"
	 viewBox="0 0 200 200" style="enable-background:new 0 0 200 200;" xml:space="preserve">
<style type="text/css">
	.st0{fill:#58595B;}
	.st1{fill:#FFFFFF;}
	.st2{fill:url(#SVGID_1_);}
	.st3{fill:none;stroke:#355688;stroke-width:4;stroke-miterlimit:10;}
	.st4{fill:#355688;}
	.st5{opacity:0.22;fill:#050305;}
	.st6{fill:none;stroke:#FFFFFF;stroke-width:6;stroke-miterlimit:10;}
</style>
<g id="background">
</g>
<g id="icons">
	<g>

			<image style="overflow:visible;opacity:0.51;" width="844" height="844" xlink:href="CA442F6A7ECC0A1.png"  transform="matrix(0.24 0 0 0.24 328.4301 583.041)">
		</image>
		<g>
			<g>
				<g>
					<g>
						<g>
							<g>
								<path class="st0" d="M362.3,769.5h132.6c11,0,19.9-8.9,19.9-19.9V617.1c0-11-8.9-19.9-19.9-19.9H362.3
									c-11,0-19.9,8.9-19.9,19.9v132.6C342.5,760.6,351.4,769.5,362.3,769.5z"/>
							</g>
							<path class="st1" d="M494.9,597.2c11,0,19.9,8.9,19.9,19.9v132.6c0,11-8.9,19.9-19.9,19.9H362.3c-11,0-19.9-8.9-19.9-19.9
								V617.1c0-11,8.9-19.9,19.9-19.9H494.9z"/>

								<linearGradient id="SVGID_1_" gradientUnits="userSpaceOnUse" x1="334.4206" y1="777.5541" x2="502.0285" y2="609.9462" gradientTransform="matrix(-1 0 0 -1 857.2603 1366.6891)">
								<stop  offset="0" style="stop-color:#FFFFFF"/>
								<stop  offset="0.6" style="stop-color:#EBEBEB"/>
								<stop  offset="1" style="stop-color:#D3D3D3"/>
							</linearGradient>
							<path class="st2" d="M345.8,617.1c0-9.1,7.5-16.6,16.6-16.6h132.6c9.1,0,16.6,7.5,16.6,16.6v132.6c0,9.1-7.5,16.6-16.6,16.6
								H362.3c-9.1,0-16.6-7.5-16.6-16.6V617.1z"/>
						</g>
					</g>
				</g>
			</g>
		</g>
	</g>
	<g>
		<g>
			<g>
				<path class="st3" d="M484.7,729.4c-1.3,2.8-4.3,7.3-10.8,7.3h-69.7"/>
				<path class="st3" d="M405,671.8c6.7-2,31.5-11.3,31.5-40.1c0,0,0.6-7.3,8.6-7.3c0,0,8.8-1.9,9.8,9.1c0,0,2.3,19.3-4,32h37.9
					c0,0,3.9-0.3,5.6,4.3"/>
				<polyline class="st3" points="373,669.7 391.9,669.7 391.9,741.7 371.2,741.7 				"/>
				<g>
					<path class="st3" d="M495.1,676.2c-0.7,3.7-3.4,8-10.1,7.9h-3.1"/>
				</g>
				<g>
					<path class="st3" d="M492.9,693.9c-0.7,3.7-3.4,8-10.1,7.9h-3.1"/>
				</g>
				<g>
					<path class="st3" d="M488.6,711.9c-0.7,3.7-3.4,8-10.1,7.9h-3.1"/>
				</g>
			</g>
		</g>
		<line class="st3" x1="367.7" y1="669.7" x2="363.7" y2="669.7"/>
		<line class="st3" x1="478.2" y1="684.1" x2="474.2" y2="684.1"/>
		<line class="st3" x1="476.2" y1="701.9" x2="472.2" y2="701.9"/>
		<line class="st3" x1="472.2" y1="719.8" x2="468.2" y2="719.8"/>
		<line class="st3" x1="367.7" y1="741.7" x2="363.7" y2="741.7"/>
	</g>
</g>
<g id="Layer_3">
	<path class="st4" d="M181.2,188.3H21.6c-4.2,0-7.7-3.4-7.7-7.7V20.9c0-4.2,3.4-7.7,7.7-7.7h159.7c4.2,0,7.7,3.4,7.7,7.7v159.7
		C188.9,184.8,185.5,188.3,181.2,188.3z"/>
	<g id="Layer_4">
	</g>
	<path class="st5" d="M188.9,180.6V92.8l-66.3-58.1l-0.4-0.3v0.5l-10.8,3.7L103.5,61L88.3,76.8l-11.7,10l-11.6-8l0,0l-18,3.8
		l-8.7-4.2l-4-0.1V157l31.3,31.3h115.6C185.5,188.3,188.9,184.8,188.9,180.6z"/>
	<g>
		<g>
			<g>
				<path class="st6" d="M155.3,141.3c-1.3,2.8-4.3,7.3-10.8,7.3H74.8"/>
				<path class="st6" d="M75.6,83.7c6.7-2,31.5-11.3,31.5-40.1c0,0,0.6-7.3,8.6-7.3c0,0,8.8-1.9,9.8,9.1c0,0,2.3,19.3-4,32h37.9
					c0,0,3.9-0.3,5.6,4.3"/>
				<polyline class="st6" points="43.6,81.7 62.5,81.7 62.5,153.7 41.8,153.7 				"/>
				<g>
					<path class="st6" d="M165.7,88.1c-0.7,3.7-3.4,8-10.1,7.9h-3.1"/>
				</g>
				<g>
					<path class="st6" d="M163.6,105.9c-0.7,3.7-3.4,8-10.1,7.9h-3.1"/>
				</g>
				<g>
					<path class="st6" d="M159.2,123.8c-0.7,3.7-3.4,8-10.1,7.9h-3.1"/>
				</g>
			</g>
		</g>
		<line class="st6" x1="38.3" y1="81.7" x2="34.3" y2="81.7"/>
		<line class="st6" x1="148.8" y1="96.1" x2="144.9" y2="96.1"/>
		<line class="st6" x1="146.8" y1="113.8" x2="142.9" y2="113.8"/>
		<line class="st6" x1="142.8" y1="131.7" x2="138.9" y2="131.7"/>
		<line class="st6" x1="38.3" y1="153.7" x2="34.3" y2="153.7"/>
	</g>
</g>
</svg>
