<?xml version="1.0" encoding="utf-8"?>
<!-- Generator: Adobe Illustrator 23.0.1, SVG Export Plug-In . SVG Version: 6.00 Build 0)  -->
<svg version="1.1" xmlns="http://www.w3.org/2000/svg" xmlns:xlink="http://www.w3.org/1999/xlink" x="0px" y="0px"
	 viewBox="0 0 100 100" style="enable-background:new 0 0 100 100;" xml:space="preserve">
<style type="text/css">
	.st0{fill:#355688;}
	.st1{fill:none;stroke:#FFFFFF;stroke-width:2.6322;stroke-miterlimit:10;}
	.st2{fill:none;stroke:#FFFFFF;stroke-width:2.6322;stroke-linecap:square;stroke-miterlimit:10;}
	.st3{display:none;}
	.st4{display:inline;}
	.st5{display:inline;fill:#FFFFFF;}
	.st6{display:inline;fill:none;stroke:#FFFFFF;stroke-width:6.5;stroke-miterlimit:10;}
</style>
<g id="Layer_6">
	<path class="st0" d="M94.8,99H5.2C2.9,99,1,97.1,1,94.8V5.2C1,2.9,2.9,1,5.2,1h89.6C97.1,1,99,2.9,99,5.2v89.6
		C99,97.1,97.1,99,94.8,99z"/>
</g>
<g id="Layer_8">
	<g id="_x39__2_">
		<g>
			<rect x="17.2" y="21.8" class="st1" width="65.8" height="56.9"/>
			<line class="st1" x1="17.2" y1="31.2" x2="78.4" y2="31.2"/>
			<line class="st1" x1="21.4" y1="26.6" x2="23.7" y2="26.6"/>
			<line class="st1" x1="26.1" y1="26.6" x2="28.5" y2="26.6"/>
			<line class="st1" x1="30.8" y1="26.6" x2="33.2" y2="26.6"/>
		</g>
	</g>
</g>
<g id="Layer_1">
	<g>
		<polyline class="st2" points="6.4,58.2 11.9,51.7 6.4,45.1 		"/>
		<polyline class="st2" points="93.5,45.1 88,51.7 93.5,58.2 		"/>
	</g>
	<g id="Layer_4">
		<rect x="40.8" y="50.3" class="st2" width="21.6" height="7.8"/>
		<line class="st2" x1="40.8" y1="64.6" x2="62.4" y2="64.6"/>
		<line class="st2" x1="40.8" y1="44.6" x2="62.4" y2="44.6"/>
		<line class="st2" x1="54" y1="38.6" x2="62.4" y2="38.6"/>
		<line class="st2" x1="40.8" y1="38.6" x2="49" y2="38.6"/>
		<line class="st2" x1="54" y1="70.6" x2="62.4" y2="70.6"/>
		<line class="st2" x1="40.8" y1="70.6" x2="49" y2="70.6"/>
	</g>
</g>
<g id="Layer_7" class="st3">
	<g class="st4">
		<polyline class="st2" points="10.9,47.1 5.4,53.7 10.9,60.2 		"/>
		<polyline class="st2" points="89,60.2 94.5,53.7 89,47.1 		"/>
	</g>
	<g id="Layer_3" class="st4">
		<g>
			<line class="st1" x1="51.9" y1="62.3" x2="77" y2="62.3"/>
			<line class="st1" x1="23" y1="48" x2="59.8" y2="48"/>
			<line class="st1" x1="23.2" y1="62.3" x2="77" y2="62.3"/>
			<line class="st1" x1="52.4" y1="55.1" x2="77" y2="55.1"/>
			<line class="st1" x1="23" y1="55.1" x2="47.6" y2="55.1"/>
			<line class="st1" x1="23" y1="41.1" x2="77" y2="41.1"/>
			<line class="st1" x1="23.2" y1="69.4" x2="77" y2="69.4"/>
			<line class="st1" x1="64.6" y1="47.9" x2="77" y2="47.9"/>
		</g>
	</g>
</g>
<g id="Layer_5" class="st3">
	<circle class="st5" cx="50.5" cy="69.8" r="4.5"/>
	<path class="st6" d="M37.7,42.5c0-7.8,5.7-12.8,12.8-12.8c7.1,0,12.8,4.4,12.8,11.5c0,10-12.8,10.1-12.8,18.9"/>
	<circle class="st6" cx="50.5" cy="50.5" r="38.5"/>
</g>
<g id="Layer_2" class="st3">
	<path class="st6" d="M23,23.6"/>
	<path class="st6" d="M12,50.5"/>
	<path class="st6" d="M17.6,60.8c-1-3.2-1.6-6.7-1.6-10.3"/>
	<path class="st6" d="M26.4,75.2c-2.4-2.3-4.4-4.9-6-7.8"/>
	<path class="st6" d="M23.7,78.1"/>
	<path class="st6" d="M29.9,83"/>
	<path class="st6" d="M41.4,83.8c-3.4-0.9-6.5-2.3-9.4-4.2"/>
	<path class="st6" d="M40.3,87.6"/>
	<path class="st6" d="M25.8,26.4C32.1,20,40.8,16,50.5,16C69.6,16,85,31.4,85,50.5S69.6,85,50.5,85"/>
	<polygon class="st5" points="14,14 38,38 14,38 	"/>
</g>
</svg>
