<?xml version="1.0" encoding="utf-8"?>
<!-- Generator: Adobe Illustrator 23.0.1, SVG Export Plug-In . SVG Version: 6.00 Build 0)  -->
<svg version="1.1" xmlns="http://www.w3.org/2000/svg" xmlns:xlink="http://www.w3.org/1999/xlink" x="0px" y="0px"
	 viewBox="0 0 309 311" style="enable-background:new 0 0 309 311;" xml:space="preserve">
<style type="text/css">
	.st0{fill:#673A61;}
</style>
<g id="background">
</g>
<g id="magnifying_glass">
	<g>
		<g>
			<g>
				<g>
					<path class="st0" d="M279.3,243.8l-51.4-51.5c-9,13.7-20.8,25.4-34.4,34.4l51.4,51.5c4.8,4.8,11,7.1,17.2,7.1
						c6.2,0,12.5-2.4,17.2-7.1C288.8,268.7,288.8,253.3,279.3,243.8z"/>
				</g>
			</g>
			<g>
				<path class="st0" d="M127.5,231.3c-57.9,0-105-47.1-105-105c0-57.9,47.1-105,105-105c57.9,0,105,47.1,105,105
					C232.5,184.2,185.4,231.3,127.5,231.3z M127.5,51.8C86.4,51.8,53,85.2,53,126.3c0,41.1,33.4,74.5,74.5,74.5
					c41.1,0,74.5-33.4,74.5-74.5C202,85.2,168.6,51.8,127.5,51.8z"/>
			</g>
			<g>
				<g>
					<path class="st0" d="M80.1,133.9c-4.2,0-7.6-3.4-7.6-7.6c0-30.3,24.7-55,55-55c4.2,0,7.6,3.4,7.6,7.6c0,4.2-3.4,7.6-7.6,7.6
						c-21.9,0-39.8,17.9-39.8,39.8C87.7,130.5,84.3,133.9,80.1,133.9z"/>
				</g>
			</g>
		</g>
	</g>
</g>
</svg>
