<?xml version="1.0" encoding="utf-8"?>
<!-- Generator: Adobe Illustrator 23.0.1, SVG Export Plug-In . SVG Version: 6.00 Build 0)  -->
<svg version="1.1" xmlns="http://www.w3.org/2000/svg" xmlns:xlink="http://www.w3.org/1999/xlink" x="0px" y="0px"
	 viewBox="0 0 100 100" style="enable-background:new 0 0 100 100;" xml:space="preserve">
<style type="text/css">
	.st0{fill:#355688;}
	.st1{display:none;}
	.st2{display:inline;}
	.st3{fill:none;stroke:#355688;stroke-width:2.6322;stroke-miterlimit:10;}
	.st4{fill:none;stroke:#355688;stroke-width:2.6322;stroke-linecap:square;stroke-miterlimit:10;}
	.st5{display:inline;fill:#FFFFFF;}
	.st6{display:inline;fill:none;stroke:#FFFFFF;stroke-width:6.5;stroke-miterlimit:10;}
	.st7{fill:none;stroke:#FFFFFF;stroke-width:6.5;stroke-miterlimit:10;}
	.st8{fill:#FFFFFF;}
</style>
<g id="Layer_6">
	<path class="st0" d="M94.8,99H5.2C2.9,99,1,97.1,1,94.8V5.2C1,2.9,2.9,1,5.2,1h89.6C97.1,1,99,2.9,99,5.2v89.6
		C99,97.1,97.1,99,94.8,99z"/>
</g>
<g id="Layer_1" class="st1">
	<g id="_x39_" class="st2">
		<g>
			<rect x="14.2" y="21.7" class="st3" width="71.3" height="59"/>
			<line class="st3" x1="14.2" y1="31.5" x2="80.5" y2="31.5"/>
			<line class="st3" x1="18.7" y1="26.6" x2="21.3" y2="26.6"/>
			<line class="st3" x1="23.9" y1="26.6" x2="26.4" y2="26.6"/>
			<line class="st3" x1="29" y1="26.6" x2="31.6" y2="26.6"/>
		</g>
	</g>
	<g class="st2">
		<polyline class="st4" points="4.4,60.2 9.9,53.7 4.4,47.1 		"/>
		<polyline class="st4" points="95.5,47.1 90,53.7 95.5,60.2 		"/>
	</g>
	<g class="st2">
		<polyline class="st4" points="8.9,47.1 3.4,53.7 8.9,60.2 		"/>
		<polyline class="st4" points="91,60.2 96.5,53.7 91,47.1 		"/>
	</g>
	<g id="Layer_3" class="st2">
		<line class="st3" x1="51.5" y1="62.3" x2="78" y2="62.3"/>
		<line class="st3" x1="21" y1="48" x2="59.9" y2="48"/>
		<line class="st3" x1="21.2" y1="62.3" x2="78" y2="62.3"/>
		<line class="st3" x1="52" y1="55.1" x2="78" y2="55.1"/>
		<line class="st3" x1="21" y1="55.1" x2="47" y2="55.1"/>
		<line class="st3" x1="21" y1="41.1" x2="78" y2="41.1"/>
		<line class="st3" x1="21.2" y1="69.4" x2="78" y2="69.4"/>
		<line class="st3" x1="64.9" y1="47.9" x2="78" y2="47.9"/>
	</g>
	<g id="Layer_4" class="st2">
		<rect x="40.8" y="51.3" class="st4" width="21.6" height="7.8"/>
		<line class="st4" x1="40.8" y1="65.6" x2="62.4" y2="65.6"/>
		<line class="st4" x1="40.8" y1="45.6" x2="62.4" y2="45.6"/>
		<line class="st4" x1="54" y1="39.6" x2="62.4" y2="39.6"/>
		<line class="st4" x1="40.8" y1="39.6" x2="49" y2="39.6"/>
		<line class="st4" x1="54" y1="71.6" x2="62.4" y2="71.6"/>
		<line class="st4" x1="40.8" y1="71.6" x2="49" y2="71.6"/>
	</g>
</g>
<g id="Layer_5" class="st1">
	<circle class="st5" cx="50.5" cy="69.8" r="4.5"/>
	<path class="st6" d="M37.7,42.5c0-7.8,5.7-12.8,12.8-12.8c7.1,0,12.8,4.4,12.8,11.5c0,10-12.8,10.1-12.8,18.9"/>
	<circle class="st6" cx="50.5" cy="50.5" r="38.5"/>
</g>
<g id="Layer_2">
	<path class="st7" d="M23,23.6"/>
	<path class="st7" d="M12,50.5"/>
	<path class="st7" d="M17.6,60.8c-1-3.2-1.6-6.7-1.6-10.3"/>
	<path class="st7" d="M26.4,75.2c-2.4-2.3-4.4-4.9-6-7.8"/>
	<path class="st7" d="M23.7,78.1"/>
	<path class="st7" d="M29.9,83"/>
	<path class="st7" d="M41.4,83.8c-3.4-0.9-6.5-2.3-9.4-4.2"/>
	<path class="st7" d="M40.3,87.6"/>
	<path class="st7" d="M25.8,26.4C32.1,20,40.8,16,50.5,16C69.6,16,85,31.4,85,50.5S69.6,85,50.5,85"/>
	<polygon class="st8" points="14,14 38,38 14,38 	"/>
</g>
</svg>
